<svg width="512" height="488" viewBox="0 0 512 488" fill="none" xmlns="http://www.w3.org/2000/svg">
<g clip-path="url(#clip0_1207_4)">
<path d="M92.1201 243.7C89.3401 249.5 82.3601 251.95 76.5601 249.17C70.7501 246.39 68.3101 239.45 71.0801 233.61C77.2301 220.73 84.8001 208.66 93.5501 197.55C102.35 186.406 112.35 176.265 123.37 167.31C128.38 163.23 135.74 163.99 139.78 168.99C143.86 174 143.1 181.36 138.1 185.39C128.38 193.31 119.54 202.22 111.85 211.98C104.15 221.78 97.5401 232.39 92.1201 243.7V243.7ZM111.7 380.48C108.3 377.5 104.73 374.31 102.94 372.15L102.84 372.22C98.67 375.07 93.5101 376.98 86.4601 376.96C79.3401 376.95 73.4601 374.8 68.1501 370.36C66.1001 372.89 61.6601 376.66 57.6801 380.03L56.8201 380.75C56.1901 403.36 105.11 410.2 111.7 380.48V380.48ZM105.82 369.89C107.5 371.93 111.52 375.46 115.1 378.59L118.36 381.47C142.13 390.69 166.17 400 168.92 428.91C169.76 437.86 169.68 437.47 161.09 437.64C115.77 438.54 52.6601 436.89 8.31005 437.64C0.250053 437.77 -0.579947 438.35 0.260053 426.88C6.48005 397.43 23.9601 391.82 50.2501 381.6C51.6401 380.34 53.4301 378.83 55.3201 377.23C59.5501 373.65 64.3501 369.58 65.5101 367.93C63.9801 366.39 62.5701 364.79 61.2001 363.19L55.3501 356.4L51.6301 356.5L43.5501 356.71C36.6101 348.73 37.0501 331.59 37.7101 321.69C40.9501 301.8 48.6401 287.47 61.1601 279.19C69.6501 273.58 74.7101 273.27 84.6301 273.26C93.2801 273.25 98.5901 273.07 105.97 277.93C130.02 293.77 137.47 331.15 125.72 356.32H117.85L112.77 362.39C110.61 364.99 108.42 367.6 105.82 369.89V369.89ZM57.3201 353.03C57.7601 353.16 58.1301 353.38 58.3901 353.68L65.0601 361.42C71.1601 368.5 76.4801 373.62 86.4601 373.63C97.2901 373.65 102.43 368.41 108.87 360.67L114.74 353.64C114.99 353.35 115.33 353.13 115.72 353C116.25 351.19 116.67 349.3 116.96 347.32C117.99 340.39 118.03 335 114.9 328.61C112.2 323.09 108.4 320.23 104.26 318.19C108.73 323.18 112.43 328.03 111.45 332C105.99 326 100.36 320.77 94.5301 316.43C82.3401 310.13 75.1701 301.6 71.9701 291.27C53.9901 309.23 50.7701 330.21 57.3201 353.03V353.03ZM445.49 359.05C455.94 347.5 458.73 339.71 457.34 324.13C457.12 321.64 456.75 319.11 456.24 316.55C447.71 312.6 442.14 303.91 439.28 290.87C435.87 315.7 405.37 314.64 397.7 319.16C397.7 321.25 397.64 323.23 397.59 325.12C397.25 337.91 398.19 344.71 404.63 354.92C405.71 356.63 406.76 358.28 408.03 359.65C418.28 370.7 435.8 369.31 445.49 359.05ZM362.47 372.8C369.38 372.25 374.13 368.36 377.34 362.74C380.62 357.05 382.35 349.56 383.23 341.94C383.67 337.99 383.95 333.76 384.22 329.46C385.57 308.44 387.04 285.74 410.93 276.09C414.545 274.632 418.35 273.699 422.23 273.32C430.48 272.51 438.91 274.22 446.17 278.37C453.44 282.54 459.58 289.17 463.23 298.2C464.91 302.35 466.07 307.02 466.57 312.19V312.25C466.51 324.94 468.54 342.78 474.05 355.84C478.01 365.23 483.78 372.15 491.83 372.8C492.16 372.82 492.41 373.12 492.39 373.45L492.33 373.68C490.77 377.86 483.91 381.09 475.7 382.66C487.98 385.65 496.49 389.25 502.26 395.6C509.35 403.42 512 415.05 512 434.39C512 435.67 510.96 436.7 509.69 436.7H344.61C343.33 436.7 342.29 435.67 342.29 434.39C342.29 415.56 344.8 403.92 351.49 396.04C356.94 389.62 364.98 385.91 376.53 383.05C369.34 381.27 363.44 377.83 361.95 373.61C361.84 373.3 362 372.95 362.31 372.84L362.47 372.8V372.8ZM456.93 383.18C455.8 383.01 454.71 382.8 453.65 382.54C450.4 381.75 447.53 380.53 445.38 378.85C442.11 376.28 440.49 372.66 441.58 367.81C431.77 373.93 421.48 373.92 411.73 367.63L411.07 367.26C411.02 370.15 409.2 378.64 406.41 380.34C401.9 383.08 394.64 384.27 389.33 385.13C388.06 385.34 386.91 385.52 385.88 385.73C384.19 386.06 382.57 386.4 381.01 386.74C396.05 401.36 411.2 409.53 426.44 409.99C441.72 410.45 457.34 403.15 473.34 386.83C471.01 386.28 468.54 385.76 465.93 385.23L465.55 385.15C463.32 384.71 460.18 384.09 456.93 383.18V383.18ZM210.43 29.0399C231.72 2.71988 256.26 -11.5901 274.69 11.8199C296.9 12.9899 305.8 48.2699 288.09 63.1199L287.99 63.9999C288.68 63.7799 289.38 63.6499 290.04 63.5999C291.35 63.4999 292.6 63.7099 293.67 64.2799C294.83 64.8999 295.73 65.9099 296.19 67.3299C296.63 68.7099 296.64 70.4599 296.07 72.6099C295.24 75.1799 294.23 78.0799 293.25 80.5899C292.82 81.7899 292.41 82.6599 291.54 83.3499L291.49 83.3799C290.59 84.0899 289.47 84.3499 287.79 84.2599L287.02 84.1699C286.86 92.1899 283.24 96.2599 278.34 100.93C282.99 117.14 295.83 119.62 308.43 122.06C325.37 125.33 341.33 150.57 341.33 163.76V171.16C341.33 172.41 340.31 173.42 339.06 173.42H172.28C171.03 173.42 170.02 172.41 170.02 171.16V164.47C170.02 147.62 188.3 125.52 206.1 123.13C219.18 121.38 232.37 119.61 236.92 103.55L235.72 102.51C230.23 97.7799 225.63 93.8199 224.76 84.1999L224.28 84.2099C223.148 84.2102 222.035 83.9174 221.05 83.3599C219.41 82.4399 218.27 80.8399 217.5 79.0499C216.58 76.9199 216.16 74.4299 216.07 72.5699V69.2999L216.24 66.4999L216.38 65.9599C217.53 62.7699 219.3 61.7399 221.62 61.8099L220.08 60.7899C219.25 50.4199 221.68 32.4399 210.43 29.0399V29.0399ZM275.06 104.03L274.79 104.28L273.65 105.34C272.73 106.27 271.68 107.09 270.52 107.8C266.06 110.89 261.36 112.4 256.62 112.4C251.14 112.41 245.65 110.4 240.44 106.49C238.52 114.21 233.58 120.36 226.43 123.84C247.14 136.47 267.56 136.1 287.65 121.19C280.03 117.74 276.08 111.12 275.06 104.03V104.03ZM225.37 66.9999C222.86 66.1299 221.08 65.7199 220.4 67.2799L220.29 69.3999V72.3499C220.36 73.8299 220.68 75.7699 221.37 77.3799C221.81 78.3999 222.4 79.2799 223.13 79.6999C223.49 79.8999 223.9 79.9899 224.33 79.9999C224.85 79.9999 225.44 79.8899 226.06 79.7199L226.68 79.5999C227.84 79.5799 228.82 80.4999 228.84 81.6599C229.07 91.2199 233.32 94.8799 238.47 99.3099L240.63 101.19C245.8 105.79 251.26 108.18 256.62 108.18C261.81 108.19 267.02 105.92 271.86 101.24L274.06 99.1599C279.47 94.0799 283.46 90.3199 282.69 81.1899C282.67 80.7399 282.77 80.2699 283.04 79.8699C283.67 78.8999 284.99 78.6299 285.96 79.2599L287.08 79.8499L287.97 80.0399L288.92 80.0499C290.07 77.2699 291 74.2999 292 71.4599C292.34 70.1799 292.37 69.2399 292.18 68.6399C292.07 68.3299 291.9 68.1099 291.68 67.9999C291.37 67.8399 290.9 67.7699 290.36 67.8199C289.18 67.9099 287.8 68.4799 286.57 69.4099C286.12 69.7399 285.54 69.8999 284.95 69.7999C283.8 69.6099 283.03 68.5099 283.22 67.3599C285.21 55.7499 284.3 48.1699 281.83 43.0199C279.66 38.4999 276.2 35.7499 272.45 33.7099C264.15 40.0799 258.28 40.8099 252.44 41.5299C247.61 42.1299 242.77 42.7299 236.39 47.1499C233.36 49.2399 231.33 51.7999 230.3 54.7499C229.25 57.7499 229.19 61.2699 230.07 65.2599C230.14 65.6499 230.12 66.0599 229.98 66.4499C229.785 66.9741 229.391 67.3998 228.883 67.634C228.375 67.8682 227.795 67.8919 227.27 67.6999L225.37 66.9999V66.9999ZM375.63 187.42C370.71 183.29 370.08 175.93 374.2 171.01C378.33 166.09 385.69 165.46 390.61 169.58C401.94 179.09 412.16 189.82 420.98 201.72C426.79 209.54 432.09 217.87 436.76 226.66C439.74 232.39 437.56 239.45 431.88 242.44C426.15 245.43 419.09 243.24 416.1 237.56C412.078 229.922 407.449 222.618 402.26 215.72C394.28 205.06 385.67 196.02 375.63 187.42V187.42ZM309.42 455.32C315.52 453.26 322.13 456.58 324.19 462.68C326.25 468.78 322.93 475.38 316.83 477.44C307.016 480.76 296.941 483.252 286.71 484.89C276.449 486.571 266.068 487.414 255.67 487.41C245.02 487.41 234.46 486.53 224.07 484.81C213.43 483.04 203.17 480.43 193.36 477.07C187.27 474.96 183.99 468.31 186.09 462.21C188.19 456.11 194.84 452.83 200.94 454.94C209.69 457.92 218.69 460.24 227.78 461.75C236.74 463.23 246.04 464.02 255.63 464.02C265.05 464.02 274.18 463.27 282.93 461.84C292.05 460.4 300.89 458.17 309.42 455.32V455.32Z" fill="white"/>
</g>
<defs>
<clipPath id="clip0_1207_4">
<rect width="512" height="487.41" fill="white"/>
</clipPath>
</defs>
</svg>
