<svg width="35" height="35" viewBox="0 0 35 35" fill="none" xmlns="http://www.w3.org/2000/svg">
<path fill-rule="evenodd" clip-rule="evenodd" d="M1.45837 4.13873C1.45837 3.42784 1.74077 2.74607 2.24345 2.24339C2.74613 1.74072 3.4279 1.45832 4.13879 1.45832H30.8584C31.2107 1.45774 31.5596 1.52666 31.8852 1.66112C32.2109 1.79559 32.5068 1.99296 32.756 2.24193C33.0053 2.49091 33.203 2.7866 33.3378 3.11208C33.4726 3.43756 33.5419 3.78644 33.5417 4.13873V30.8583C33.5421 31.2107 33.473 31.5597 33.3384 31.8853C33.2037 32.2109 33.0062 32.5068 32.7572 32.7561C32.5081 33.0053 32.2123 33.203 31.8867 33.3378C31.5611 33.4726 31.2122 33.5418 30.8598 33.5416H4.13879C3.78667 33.5416 3.438 33.4723 3.1127 33.3375C2.7874 33.2027 2.49185 33.0051 2.24293 32.7561C1.99402 32.507 1.79661 32.2113 1.66199 31.886C1.52737 31.5606 1.45818 31.2119 1.45837 30.8598V4.13873ZM14.1575 13.6908H18.5019V15.8725C19.129 14.6183 20.7332 13.4896 23.1438 13.4896C27.7652 13.4896 28.8605 15.9877 28.8605 20.5712V29.0616H24.1836V21.6154C24.1836 19.005 23.5565 17.5321 21.964 17.5321C19.7546 17.5321 18.8359 19.1202 18.8359 21.6154V29.0616H14.1575V13.6908ZM6.13671 28.8619H10.815V13.4896H6.13671V28.8604V28.8619ZM11.4844 8.47582C11.4932 8.87638 11.422 9.27467 11.2748 9.64732C11.1276 10.02 10.9074 10.3595 10.6273 10.6459C10.3471 10.9323 10.0125 11.1598 9.6432 11.3152C9.27389 11.4706 8.87727 11.5506 8.4766 11.5506C8.07594 11.5506 7.67932 11.4706 7.31 11.3152C6.94069 11.1598 6.60613 10.9323 6.32595 10.6459C6.04578 10.3595 5.82564 10.02 5.67844 9.64732C5.53125 9.27467 5.45997 8.87638 5.46879 8.47582C5.4861 7.68956 5.8106 6.94135 6.37279 6.3914C6.93498 5.84146 7.69016 5.53351 8.4766 5.53351C9.26305 5.53351 10.0182 5.84146 10.5804 6.3914C11.1426 6.94135 11.4671 7.68956 11.4844 8.47582Z" fill="white"/>
</svg>
